<?xml version="1.0" encoding="UTF-8" standalone="no"?>
<!DOCTYPE svg PUBLIC "-//W3C//DTD SVG 1.1//EN"
 "http://www.w3.org/Graphics/SVG/1.1/DTD/svg11.dtd">
<!-- Generated by graphviz version 2.38.0 (20140413.2041)
 -->
<!-- Title: controllers_diagram Pages: 1 -->
<svg width="382pt" height="358pt"
 viewBox="0.00 0.00 382.00 357.50" xmlns="http://www.w3.org/2000/svg" xmlns:xlink="http://www.w3.org/1999/xlink">
<g id="graph0" class="graph" transform="scale(1 1) rotate(0) translate(100 241.5)">
<title>controllers_diagram</title>
<polygon fill="none" stroke="none" points="-100,116 -100,-241.5 282,-241.5 282,116 -100,116"/>
<!-- _diagram_info -->
<g id="node1" class="node"><title>_diagram_info</title>
<text text-anchor="start" x="72" y="0.4" font-family="Times,serif" font-size="13.00">Controllers diagram</text>
<text text-anchor="start" x="72" y="14.4" font-family="Times,serif" font-size="13.00">Date: Feb 26 2017 &#45; 21:19</text>
<text text-anchor="start" x="72" y="28.4" font-family="Times,serif" font-size="13.00">Migration version: 20170224232858</text>
<text text-anchor="start" x="72" y="42.4" font-family="Times,serif" font-size="13.00">Generated by RailRoady 1.5.2</text>
<text text-anchor="start" x="72" y="56.4" font-family="Times,serif" font-size="13.00">http://railroady.prestonlee.com</text>
</g>
<!-- CommentsController -->
<g id="node2" class="node"><title>CommentsController</title>
<path fill="none" stroke="black" d="M-84,-129C-84,-129 24,-129 24,-129 30,-129 36,-135 36,-141 36,-141 36,-225 36,-225 36,-231 30,-237 24,-237 24,-237 -84,-237 -84,-237 -90,-237 -96,-231 -96,-225 -96,-225 -96,-141 -96,-141 -96,-135 -90,-129 -84,-129"/>
<text text-anchor="middle" x="-30" y="-221.8" font-family="Times,serif" font-size="14.00">CommentsController</text>
<polyline fill="none" stroke="black" points="-96,-214 36,-214 "/>
<text text-anchor="start" x="-88" y="-198.8" font-family="Times,serif" font-size="14.00">create</text>
<polyline fill="none" stroke="black" points="-96,-191 36,-191 "/>
<polyline fill="none" stroke="black" points="-96,-167 36,-167 "/>
<text text-anchor="start" x="-88" y="-151.8" font-family="Times,serif" font-size="14.00">_layout</text>
<text text-anchor="start" x="-88" y="-136.8" font-family="Times,serif" font-size="14.00">comments_params</text>
</g>
<!-- ApplicationController -->
<g id="node3" class="node"><title>ApplicationController</title>
<path fill="none" stroke="black" d="M76,-48.5C76,-48.5 246,-48.5 246,-48.5 252,-48.5 258,-54.5 258,-60.5 258,-60.5 258,-129.5 258,-129.5 258,-135.5 252,-141.5 246,-141.5 246,-141.5 76,-141.5 76,-141.5 70,-141.5 64,-135.5 64,-129.5 64,-129.5 64,-60.5 64,-60.5 64,-54.5 70,-48.5 76,-48.5"/>
<text text-anchor="middle" x="161" y="-126.3" font-family="Times,serif" font-size="14.00">ApplicationController</text>
<polyline fill="none" stroke="black" points="64,-118.5 258,-118.5 "/>
<polyline fill="none" stroke="black" points="64,-94.5 258,-94.5 "/>
<text text-anchor="start" x="72" y="-79.3" font-family="Times,serif" font-size="14.00">configure_permitted_parameters</text>
<polyline fill="none" stroke="black" points="64,-71.5 258,-71.5 "/>
<text text-anchor="start" x="72" y="-56.3" font-family="Times,serif" font-size="14.00">_layout</text>
</g>
<!-- PostsController -->
<g id="node4" class="node"><title>PostsController</title>
<path fill="none" stroke="black" d="M-51.5,111.5C-51.5,111.5 25.5,111.5 25.5,111.5 31.5,111.5 37.5,105.5 37.5,99.5 37.5,99.5 37.5,-89.5 37.5,-89.5 37.5,-95.5 31.5,-101.5 25.5,-101.5 25.5,-101.5 -51.5,-101.5 -51.5,-101.5 -57.5,-101.5 -63.5,-95.5 -63.5,-89.5 -63.5,-89.5 -63.5,99.5 -63.5,99.5 -63.5,105.5 -57.5,111.5 -51.5,111.5"/>
<text text-anchor="middle" x="-13" y="-86.3" font-family="Times,serif" font-size="14.00">PostsController</text>
<polyline fill="none" stroke="black" points="-63.5,-78.5 37.5,-78.5 "/>
<text text-anchor="start" x="-55.5" y="-63.3" font-family="Times,serif" font-size="14.00">create</text>
<text text-anchor="start" x="-55.5" y="-48.3" font-family="Times,serif" font-size="14.00">destroy</text>
<text text-anchor="start" x="-55.5" y="-33.3" font-family="Times,serif" font-size="14.00">edit</text>
<text text-anchor="start" x="-55.5" y="-18.3" font-family="Times,serif" font-size="14.00">index</text>
<text text-anchor="start" x="-55.5" y="-3.3" font-family="Times,serif" font-size="14.00">new</text>
<text text-anchor="start" x="-55.5" y="11.7" font-family="Times,serif" font-size="14.00">show</text>
<text text-anchor="start" x="-55.5" y="26.7" font-family="Times,serif" font-size="14.00">update</text>
<polyline fill="none" stroke="black" points="-63.5,34.5 37.5,34.5 "/>
<polyline fill="none" stroke="black" points="-63.5,58.5 37.5,58.5 "/>
<text text-anchor="start" x="-55.5" y="73.7" font-family="Times,serif" font-size="14.00">_layout</text>
<text text-anchor="start" x="-55.5" y="88.7" font-family="Times,serif" font-size="14.00">post_params</text>
<text text-anchor="start" x="-55.5" y="103.7" font-family="Times,serif" font-size="14.00">set_post</text>
</g>
</g>
</svg>
