<?xml version="1.0" encoding="UTF-8" standalone="no"?>
<!DOCTYPE svg PUBLIC "-//W3C//DTD SVG 1.1//EN"
 "http://www.w3.org/Graphics/SVG/1.1/DTD/svg11.dtd">
<!-- Generated by graphviz version 2.38.0 (20140413.2041)
 -->
<!-- Title: models_diagram Pages: 1 -->
<svg width="494pt" height="230pt"
 viewBox="0.00 0.00 494.00 230.00" xmlns="http://www.w3.org/2000/svg" xmlns:xlink="http://www.w3.org/1999/xlink">
<g id="graph0" class="graph" transform="scale(1 1) rotate(0) translate(4 226)">
<title>models_diagram</title>
<polygon fill="none" stroke="none" points="-4,4 -4,-226 490,-226 490,4 -4,4"/>
<!-- _diagram_info -->
<g id="node1" class="node"><title>_diagram_info</title>
<text text-anchor="start" x="8" y="-207.6" font-family="Times,serif" font-size="13.00">Models diagram</text>
<text text-anchor="start" x="8" y="-193.6" font-family="Times,serif" font-size="13.00">Date: Feb 26 2017 &#45; 21:19</text>
<text text-anchor="start" x="8" y="-179.6" font-family="Times,serif" font-size="13.00">Migration version: 20170224232858</text>
<text text-anchor="start" x="8" y="-165.6" font-family="Times,serif" font-size="13.00">Generated by RailRoady 1.5.2</text>
<text text-anchor="start" x="8" y="-151.6" font-family="Times,serif" font-size="13.00">http://railroady.prestonlee.com</text>
</g>
<!-- ApplicationRecord -->
<g id="node2" class="node"><title>ApplicationRecord</title>
<ellipse fill="none" stroke="black" cx="309" cy="-183" rx="77.1866" ry="18"/>
<text text-anchor="middle" x="309" y="-179.3" font-family="Times,serif" font-size="14.00">ApplicationRecord</text>
</g>
<!-- User -->
<g id="node3" class="node"><title>User</title>
<ellipse fill="none" stroke="black" cx="432" cy="-183" rx="27.0966" ry="18"/>
<text text-anchor="middle" x="432" y="-179.3" font-family="Times,serif" font-size="14.00">User</text>
</g>
<!-- Comment -->
<g id="node4" class="node"><title>Comment</title>
<ellipse fill="none" stroke="black" cx="431" cy="-18" rx="46.2923" ry="18"/>
<text text-anchor="middle" x="431" y="-14.3" font-family="Times,serif" font-size="14.00">Comment</text>
</g>
<!-- User&#45;&gt;Comment -->
<g id="edge2" class="edge"><title>User&#45;&gt;Comment</title>
<path fill="none" stroke="#6ffeb0" d="M427.705,-156.894C424.426,-134.603 420.813,-101.142 423,-72 423.637,-63.5179 424.838,-54.3361 426.121,-46.0356"/>
<ellipse fill="none" stroke="#6ffeb0" cx="428.323" cy="-160.904" rx="4.00001" ry="4.00001"/>
<polygon fill="#6ffeb0" stroke="#6ffeb0" points="426.13,-45.9796 432.192,-36.8417 426.941,-41.0458 427.752,-36.1119 427.752,-36.1119 427.752,-36.1119 426.941,-41.0458 423.311,-35.3822 426.13,-45.9796 426.13,-45.9796"/>
</g>
<!-- Post -->
<g id="node5" class="node"><title>Post</title>
<ellipse fill="none" stroke="black" cx="459" cy="-90" rx="27" ry="18"/>
<text text-anchor="middle" x="459" y="-86.3" font-family="Times,serif" font-size="14.00">Post</text>
</g>
<!-- User&#45;&gt;Post -->
<g id="edge1" class="edge"><title>User&#45;&gt;Post</title>
<path fill="none" stroke="#a7d8aa" d="M439.386,-157.107C443.024,-144.844 447.414,-130.048 451.118,-117.566"/>
<ellipse fill="none" stroke="#a7d8aa" cx="438.216" cy="-161.049" rx="4.00001" ry="4.00001"/>
<polygon fill="#a7d8aa" stroke="#a7d8aa" points="451.191,-117.319 458.35,-109.012 452.613,-112.526 454.036,-107.732 454.036,-107.732 454.036,-107.732 452.613,-112.526 449.721,-106.452 451.191,-117.319 451.191,-117.319"/>
</g>
<!-- Post&#45;&gt;Comment -->
<g id="edge3" class="edge"><title>Post&#45;&gt;Comment</title>
<path fill="none" stroke="#b4f443" d="M449.311,-64.7779C446.818,-58.544 444.122,-51.8046 441.585,-45.4634"/>
<ellipse fill="none" stroke="#b4f443" cx="450.879" cy="-68.6971" rx="4.00001" ry="4.00001"/>
<polygon fill="#b4f443" stroke="#b4f443" points="441.496,-45.241 441.961,-34.2849 439.639,-40.5986 437.782,-35.9562 437.782,-35.9562 437.782,-35.9562 439.639,-40.5986 433.604,-37.6275 441.496,-45.241 441.496,-45.241"/>
</g>
</g>
</svg>
