<?xml version="1.0" encoding="UTF-8" standalone="no"?>
<!DOCTYPE svg PUBLIC "-//W3C//DTD SVG 1.1//EN"
 "http://www.w3.org/Graphics/SVG/1.1/DTD/svg11.dtd">
<!-- Generated by graphviz version 2.38.0 (20140413.2041)
 -->
<!-- Title: models_diagram Pages: 1 -->
<svg width="766pt" height="566pt"
 viewBox="0.00 0.00 766.00 566.00" xmlns="http://www.w3.org/2000/svg" xmlns:xlink="http://www.w3.org/1999/xlink">
<g id="graph0" class="graph" transform="scale(1 1) rotate(0) translate(4 562)">
<title>models_diagram</title>
<polygon fill="none" stroke="none" points="-4,4 -4,-562 762,-562 762,4 -4,4"/>
<!-- _diagram_info -->
<g id="node1" class="node"><title>_diagram_info</title>
<text text-anchor="start" x="8" y="-461.6" font-family="Times,serif" font-size="13.00">Models diagram</text>
<text text-anchor="start" x="8" y="-447.6" font-family="Times,serif" font-size="13.00">Date: Feb 26 2017 &#45; 21:19</text>
<text text-anchor="start" x="8" y="-433.6" font-family="Times,serif" font-size="13.00">Migration version: 20170224232858</text>
<text text-anchor="start" x="8" y="-419.6" font-family="Times,serif" font-size="13.00">Generated by RailRoady 1.5.2</text>
<text text-anchor="start" x="8" y="-405.6" font-family="Times,serif" font-size="13.00">http://railroady.prestonlee.com</text>
</g>
<!-- ApplicationRecord -->
<g id="node2" class="node"><title>ApplicationRecord</title>
<ellipse fill="none" stroke="black" cx="309" cy="-437" rx="77.1866" ry="18"/>
<text text-anchor="middle" x="309" y="-433.3" font-family="Times,serif" font-size="14.00">ApplicationRecord</text>
</g>
<!-- User -->
<g id="node3" class="node"><title>User</title>
<path fill="none" stroke="black" d="M416.5,-316.5C416.5,-316.5 705.5,-316.5 705.5,-316.5 711.5,-316.5 717.5,-322.5 717.5,-328.5 717.5,-328.5 717.5,-545.5 717.5,-545.5 717.5,-551.5 711.5,-557.5 705.5,-557.5 705.5,-557.5 416.5,-557.5 416.5,-557.5 410.5,-557.5 404.5,-551.5 404.5,-545.5 404.5,-545.5 404.5,-328.5 404.5,-328.5 404.5,-322.5 410.5,-316.5 416.5,-316.5"/>
<text text-anchor="middle" x="561" y="-542.3" font-family="Times,serif" font-size="14.00">User</text>
<polyline fill="none" stroke="black" points="404.5,-534.5 717.5,-534.5 "/>
<text text-anchor="start" x="412.5" y="-519.3" font-family="Times,serif" font-size="14.00">id :integer</text>
<text text-anchor="start" x="412.5" y="-504.3" font-family="Times,serif" font-size="14.00">email :character varying</text>
<text text-anchor="start" x="412.5" y="-489.3" font-family="Times,serif" font-size="14.00">encrypted_password :character varying</text>
<text text-anchor="start" x="412.5" y="-474.3" font-family="Times,serif" font-size="14.00">reset_password_token :character varying</text>
<text text-anchor="start" x="412.5" y="-459.3" font-family="Times,serif" font-size="14.00">reset_password_sent_at :timestamp without time zone</text>
<text text-anchor="start" x="412.5" y="-444.3" font-family="Times,serif" font-size="14.00">remember_created_at :timestamp without time zone</text>
<text text-anchor="start" x="412.5" y="-429.3" font-family="Times,serif" font-size="14.00">sign_in_count :integer</text>
<text text-anchor="start" x="412.5" y="-414.3" font-family="Times,serif" font-size="14.00">current_sign_in_at :timestamp without time zone</text>
<text text-anchor="start" x="412.5" y="-399.3" font-family="Times,serif" font-size="14.00">last_sign_in_at :timestamp without time zone</text>
<text text-anchor="start" x="412.5" y="-384.3" font-family="Times,serif" font-size="14.00">current_sign_in_ip :inet</text>
<text text-anchor="start" x="412.5" y="-369.3" font-family="Times,serif" font-size="14.00">last_sign_in_ip :inet</text>
<text text-anchor="start" x="412.5" y="-354.3" font-family="Times,serif" font-size="14.00">created_at :timestamp without time zone</text>
<text text-anchor="start" x="412.5" y="-339.3" font-family="Times,serif" font-size="14.00">updated_at :timestamp without time zone</text>
<text text-anchor="start" x="412.5" y="-324.3" font-family="Times,serif" font-size="14.00">name :character varying</text>
</g>
<!-- Comment -->
<g id="node4" class="node"><title>Comment</title>
<path fill="none" stroke="black" d="M451,-0.5C451,-0.5 671,-0.5 671,-0.5 677,-0.5 683,-6.5 683,-12.5 683,-12.5 683,-109.5 683,-109.5 683,-115.5 677,-121.5 671,-121.5 671,-121.5 451,-121.5 451,-121.5 445,-121.5 439,-115.5 439,-109.5 439,-109.5 439,-12.5 439,-12.5 439,-6.5 445,-0.5 451,-0.5"/>
<text text-anchor="middle" x="561" y="-106.3" font-family="Times,serif" font-size="14.00">Comment</text>
<polyline fill="none" stroke="black" points="439,-98.5 683,-98.5 "/>
<text text-anchor="start" x="447" y="-83.3" font-family="Times,serif" font-size="14.00">id :integer</text>
<text text-anchor="start" x="447" y="-68.3" font-family="Times,serif" font-size="14.00">comment :text</text>
<text text-anchor="start" x="447" y="-53.3" font-family="Times,serif" font-size="14.00">post_id :integer</text>
<text text-anchor="start" x="447" y="-38.3" font-family="Times,serif" font-size="14.00">created_at :timestamp without time zone</text>
<text text-anchor="start" x="447" y="-23.3" font-family="Times,serif" font-size="14.00">updated_at :timestamp without time zone</text>
<text text-anchor="start" x="447" y="-8.3" font-family="Times,serif" font-size="14.00">user_id :integer</text>
</g>
<!-- User&#45;&gt;Comment -->
<g id="edge2" class="edge"><title>User&#45;&gt;Comment</title>
<path fill="none" stroke="#99b693" d="M510.553,-308.614C498.189,-261.031 491.825,-206.735 505,-158 507.485,-148.807 511.094,-139.59 515.3,-130.701"/>
<ellipse fill="none" stroke="#99b693" cx="511.633" cy="-312.634" rx="4.00001" ry="4.00001"/>
<polygon fill="#99b693" stroke="#99b693" points="515.396,-130.51 523.901,-123.587 517.637,-126.04 519.878,-121.57 519.878,-121.57 519.878,-121.57 517.637,-126.04 515.855,-119.553 515.396,-130.51 515.396,-130.51"/>
</g>
<!-- Post -->
<g id="node5" class="node"><title>Post</title>
<path fill="none" stroke="black" d="M526,-158.5C526,-158.5 746,-158.5 746,-158.5 752,-158.5 758,-164.5 758,-170.5 758,-170.5 758,-267.5 758,-267.5 758,-273.5 752,-279.5 746,-279.5 746,-279.5 526,-279.5 526,-279.5 520,-279.5 514,-273.5 514,-267.5 514,-267.5 514,-170.5 514,-170.5 514,-164.5 520,-158.5 526,-158.5"/>
<text text-anchor="middle" x="636" y="-264.3" font-family="Times,serif" font-size="14.00">Post</text>
<polyline fill="none" stroke="black" points="514,-256.5 758,-256.5 "/>
<text text-anchor="start" x="522" y="-241.3" font-family="Times,serif" font-size="14.00">id :integer</text>
<text text-anchor="start" x="522" y="-226.3" font-family="Times,serif" font-size="14.00">title :character varying</text>
<text text-anchor="start" x="522" y="-211.3" font-family="Times,serif" font-size="14.00">content :text</text>
<text text-anchor="start" x="522" y="-196.3" font-family="Times,serif" font-size="14.00">created_at :timestamp without time zone</text>
<text text-anchor="start" x="522" y="-181.3" font-family="Times,serif" font-size="14.00">updated_at :timestamp without time zone</text>
<text text-anchor="start" x="522" y="-166.3" font-family="Times,serif" font-size="14.00">user_id :integer</text>
</g>
<!-- User&#45;&gt;Post -->
<g id="edge1" class="edge"><title>User&#45;&gt;Post</title>
<path fill="none" stroke="#932eb5" d="M605.224,-308.635C607.5,-302.079 609.742,-295.622 611.915,-289.363"/>
<ellipse fill="none" stroke="#932eb5" cx="603.87" cy="-312.535" rx="4.00001" ry="4.00001"/>
<polygon fill="#932eb5" stroke="#932eb5" points="611.988,-289.154 619.519,-281.184 613.628,-284.431 615.268,-279.708 615.268,-279.708 615.268,-279.708 613.628,-284.431 611.017,-278.232 611.988,-289.154 611.988,-289.154"/>
</g>
<!-- Post&#45;&gt;Comment -->
<g id="edge3" class="edge"><title>Post&#45;&gt;Comment</title>
<path fill="none" stroke="#d86c6e" d="M603.688,-150.79C600.491,-144.141 597.243,-137.384 594.038,-130.72"/>
<ellipse fill="none" stroke="#d86c6e" cx="605.484" cy="-154.527" rx="4.00002" ry="4.00002"/>
<polygon fill="#d86c6e" stroke="#d86c6e" points="594.038,-130.72 593.761,-119.757 591.872,-126.214 589.705,-121.707 589.705,-121.707 589.705,-121.707 591.872,-126.214 585.65,-123.657 594.038,-130.72 594.038,-130.72"/>
</g>
</g>
</svg>
